inDegrees=no
num_controls=7
num_derivatives=13
num_iterations=188
num_multipliers=7
num_parameters=0
num_slacks=7
num_states=26
objective=5.493127
objective_accelerations=0.538471
objective_balance=0.110208
objective_effort=0.388243
objective_height=4.353698
objective_ligament=0.102507
solver_duration=2127.584421
status=Solve_Succeeded
success=true
DataType=double
version=3
OpenSimVersion=4.4-2022-07-23-0e9fedc
endheader
time	/jointset/ground_pelvis/pelvis_tilt/value	/jointset/ground_pelvis/pelvis_tx/value	/jointset/ground_pelvis/pelvis_ty/value	/jointset/hip_l/hip_flexion_l/value	/jointset/hip_l/hip_adduction_l/value	/jointset/hip_l/hip_rotation_l/value	/jointset/back/lumbar_extension/value	/jointset/patellofemoral_l/patellar_flexion_l/value	/jointset/knee_l/knee_flexion_l/value	/jointset/knee_l/knee_adduction_l/value	/jointset/knee_l/knee_rotation_l/value	/jointset/ankle_l/ankle_angle_l/value	/jointset/subtalar_l/subtalar_angle_l/value	/jointset/ground_pelvis/pelvis_tilt/speed	/jointset/ground_pelvis/pelvis_tx/speed	/jointset/ground_pelvis/pelvis_ty/speed	/jointset/hip_l/hip_flexion_l/speed	/jointset/hip_l/hip_adduction_l/speed	/jointset/hip_l/hip_rotation_l/speed	/jointset/back/lumbar_extension/speed	/jointset/patellofemoral_l/patellar_flexion_l/speed	/jointset/knee_l/knee_flexion_l/speed	/jointset/knee_l/knee_adduction_l/speed	/jointset/knee_l/knee_rotation_l/speed	/jointset/ankle_l/ankle_angle_l/speed	/jointset/subtalar_l/subtalar_angle_l/speed	/forceset/tau_hip_flexion_l	/forceset/tau_hip_adduction_l	/forceset/tau_hip_rotation_l	/forceset/tau_knee_flexion_l	/forceset/tau_ankle_angle_l	/forceset/tau_subtalar_angle_l	/forceset/tau_lumbar_extension	lambda_cid13_p0	lambda_cid13_p1	lambda_cid13_p2	lambda_cid13_p3	lambda_cid13_p4	lambda_cid13_p5	lambda_cid14_p0	/jointset/ground_pelvis/pelvis_tilt/accel	/jointset/ground_pelvis/pelvis_tx/accel	/jointset/ground_pelvis/pelvis_ty/accel	/jointset/hip_l/hip_flexion_l/accel	/jointset/hip_l/hip_adduction_l/accel	/jointset/hip_l/hip_rotation_l/accel	/jointset/back/lumbar_extension/accel	/jointset/patellofemoral_l/patellar_flexion_l/accel	/jointset/knee_l/knee_flexion_l/accel	/jointset/knee_l/knee_adduction_l/accel	/jointset/knee_l/knee_rotation_l/accel	/jointset/ankle_l/ankle_angle_l/accel	/jointset/subtalar_l/subtalar_angle_l/accel	gamma_cid13_p0	gamma_cid13_p1	gamma_cid13_p2	gamma_cid13_p3	gamma_cid13_p4	gamma_cid13_p5	gamma_cid14_p0
1	-0.5757048274620102	-0.07727785084336751	0.6370157014276087	1.760249289528855	-0.2942886934229018	0.13251703427696	-0.4363317539777324	1.179995023597232	1.179995023597244	-0.1745289564079232	0.1745316157500389	0.1953740069130354	-0.004754309259259512	-0.01039455832421084	0.000441434386767373	-0.003052191433470273	0.01592729988154689	0.0005627190128064078	0.002788230030821705	-7.060819155561395e-05	0.007541811023035198	0.007541811023034976	3.772629086768328e-06	-2.128925395470487e-05	0.002525527160109433	0.001142121075235213	-0.3963030596353163	0.02349672822991078	-0.01879024744209036	-0.2524234939934964	0.04268137954112192	0.03466544002924806	0.32942683876152	-30.98752837779833	-10.05051857463691	1.680802857678192	13.59054857810891	-716.7299106653967	-46.1267074574959	-1.216313725749499	1.669915584277306	0.1552824983149189	1.506674341985334	-5.620629751834156	-0.3457713167573284	-1.672017352344305	-0.01095982999375488	-4.636557356301414	-4.636557356302025	-0.0454957748675569	0.0153638798764213	-0.9737840499172833	-0.5710723800370645	8.260244946999124e-10	3.693199628948212e-09	-4.637691029247461e-09	-4.526451701216666e-10	1.929656809707809e-09	8.310693711244267e-10	1.013052093561635e-09
1.01	-0.5757258121779707	-0.07726569102053971	0.6370603743172244	1.760128414889827	-0.2942994958782896	0.1324605055317565	-0.4363322565585071	1.179839100106061	1.179839100106715	-0.174529059362241	0.1745314527397883	0.1953509102702552	-0.004770338421080632	0.006202462105626245	0.001993328057741223	0.0119824312498588	-0.04009637378441624	-0.002718264882545839	-0.01408712651370642	-2.183456822795635e-05	-0.03871012251253342	-0.03871012251253241	-2.114433163132003e-05	-1.449215773783554e-05	-0.007137491955755663	-0.004340254438034554	-0.3962961903029207	0.023518414113832	-0.01879061331132032	-0.2522511351220678	0.04263023121619135	0.03471133223361689	0.3294418855585278	-30.99096661608124	-10.07383487163438	1.689074703682611	13.53691641266097	-716.5805223700891	-46.15450596509361	-1.219908230471521	1.655322057982032	0.1555628163647928	1.50120475426275	-5.592358438260419	-0.3185230844513496	-1.694270826407755	0.01400701680000931	-4.617052403054765	-4.617052403054069	0.01949167279257988	-0.007144659555696948	-0.9614559864355818	-0.5356672079654657	-2.544770345757647e-09	-5.679877388717067e-09	2.362547458793303e-08	1.642207590866054e-09	-3.748941704887536e-09	1.212691030225516e-08	-4.629429779936734e-09
1.02	-0.5755806813325024	-0.07723792825802712	0.6372552631382254	1.759447479061297	-0.2943429604043386	0.1322354280169325	-0.4363320291945604	1.179221149069364	1.17922114907062	-0.1745293152201713	0.1745312612457666	0.1952314044075133	-0.004840960752233785	0.02282855396127861	0.003562022323720797	0.02699099484344505	-0.0960849380216944	-0.005969695118981577	-0.03092152389429299	7.538138726303115e-05	-0.08486369808289949	-0.08486369808288759	-2.680811368166917e-05	-2.698642351254353e-05	-0.01675631683219252	-0.009776512791044668	-0.3962893209704489	0.02354009999774967	-0.01879097917993527	-0.2520787762506875	0.04257908289124578	0.03475722443797667	0.3294569323556279	-31.00296995177239	-10.09489719042894	1.696125404702596	13.51927778085632	-716.540469320576	-46.15012611089835	-1.234178853707477	1.675729869440238	0.1586426173161914	1.501462524036783	-5.613607866097206	-0.3398605849742672	-1.663825519556221	-0.00127136356057711	-4.616885763260838	-4.616885763259513	-0.04164513913417506	0.01150560747858909	-0.9649452020314682	-0.5618489479853843	-5.736943074035701e-09	-1.761852229155214e-08	5.174667644304211e-08	2.238236687708919e-09	-9.308360270500045e-09	2.219994920852519e-08	-1.065704161461142e-08
1.03	-0.5752693041693444	-0.07719445464812522	0.6375999714386642	1.758207310573935	-0.2944188067638961	0.1318422600448461	-0.4363309428401801	1.178142325749999	1.178142325750159	-0.1745296044884733	0.1745309478749551	0.195015764782983	-0.004965765275982214	0.03943504500151821	0.00512939764476728	0.04193264798508324	-0.1518941359293553	-0.009194361480773117	-0.04770202913002736	0.0001151859039320754	-0.130866826323725	-0.1308668263237168	-3.073571927105387e-05	-3.059885593293775e-05	-0.0263802179664131	-0.01517941666530537	-0.3953034978397389	0.02353018128260467	-0.01882308801851502	-0.2519923165347316	0.04294247996584685	0.03479164652548022	0.3287016640699401	-30.83832750709817	-10.14550024839111	1.711989784231498	13.44768181482422	-715.7343536612686	-46.19888753075202	-1.259338204323177	1.651332524354359	0.1552902556822339	1.487811113290633	-5.556383705446057	-0.3129972158463307	-1.683670998918676	0.002600776523570295	-4.586902059445507	-4.586902059447037	0.02027347998880027	-0.005549265631817176	-0.9624033441424141	-0.5287696454337193	-8.927293127699678e-09	-2.958334645852161e-08	7.986642968833414e-08	2.818971665529889e-09	-1.486656271418416e-08	3.226051054311296e-08	-1.668858334684914e-08
